<svg xmlns="http://www.w3.org/2000/svg" viewBox="0 0 512 512" width="512" height="512">
  <rect width="512" height="512" rx="64" fill="#1A1A1A"/>
  <g transform="translate(256, 256) scale(2.2)">
    <path d="M-50 -18 Q-62 -45 -40 -56 Q-18 -65 2 -62 Q25 -58 42 -68 Q58 -62 55 -40 Q62 -18 58 8 Q65 30 52 48 Q40 62 18 58 Q-8 65 -30 56 Q-50 50 -56 30 Q-62 8 -50 -18Z" fill="#FF3399" opacity="0.8"/>
    <circle cx="-46" cy="-50" r="9" fill="#39FF33" opacity="0.6"/>
    <circle cx="54" cy="-54" r="7" fill="#39FF33" opacity="0.5"/>
    <circle cx="-58" cy="18" r="6" fill="#39FF33" opacity="0.45"/>
    <circle cx="58" cy="40" r="5" fill="#39FF33" opacity="0.4"/>
    <circle cx="35" cy="60" r="4" fill="#39FF33" opacity="0.35"/>
    <circle cx="-42" cy="52" r="3.5" fill="#39FF33" opacity="0.3"/>
    <circle cx="-65" cy="-35" r="3" fill="#FF3399" opacity="0.4"/>
    <circle cx="65" cy="-25" r="2.5" fill="#FF3399" opacity="0.35"/>
    <circle cx="0" cy="0" r="40" fill="#0D0D0D"/>
    <ellipse cx="-12" cy="-14" rx="16" ry="10" fill="#1A1A1A" opacity="0.8" transform="rotate(-25 -12 -14)"/>
    <circle cx="0" cy="0" r="18" fill="#FFFFFF"/>
    <text x="0" y="1" text-anchor="middle" dominant-baseline="central" font-family="Georgia, 'Times New Roman', serif" font-size="22" font-weight="700" fill="#0D0D0D">A</text>
  </g>
</svg>
