<svg xmlns="http://www.w3.org/2000/svg" viewBox="0 0 800 260" width="800" height="260">
  <rect width="800" height="260" fill="#1A1A1A"/>
  <g transform="translate(185, 130)">
    <path d="M-50 -18 Q-62 -45 -40 -56 Q-18 -65 2 -62 Q25 -58 42 -68 Q58 -62 55 -40 Q62 -18 58 8 Q65 30 52 48 Q40 62 18 58 Q-8 65 -30 56 Q-50 50 -56 30 Q-62 8 -50 -18Z" fill="#FF3399" opacity="0.8"/>
    <circle cx="-46" cy="-50" r="9" fill="#39FF33" opacity="0.6"/>
    <circle cx="54" cy="-54" r="7" fill="#39FF33" opacity="0.5"/>
    <circle cx="-58" cy="18" r="6" fill="#39FF33" opacity="0.45"/>
    <circle cx="58" cy="40" r="5" fill="#39FF33" opacity="0.4"/>
    <circle cx="35" cy="60" r="4" fill="#39FF33" opacity="0.35"/>
    <circle cx="-42" cy="52" r="3.5" fill="#39FF33" opacity="0.3"/>
    <circle cx="-65" cy="-35" r="3" fill="#FF3399" opacity="0.4"/>
    <circle cx="65" cy="-25" r="2.5" fill="#FF3399" opacity="0.35"/>
    <circle cx="-55" cy="48" r="2" fill="#FF3399" opacity="0.3"/>
    <circle cx="60" cy="55" r="2" fill="#39FF33" opacity="0.25"/>
    <circle cx="-70" cy="0" r="1.5" fill="#FF3399" opacity="0.2"/>
    <circle cx="0" cy="0" r="40" fill="#0D0D0D"/>
    <ellipse cx="-12" cy="-14" rx="16" ry="10" fill="#1A1A1A" opacity="0.8" transform="rotate(-25 -12 -14)"/>
    <circle cx="0" cy="0" r="18" fill="#FFFFFF"/>
    <text x="0" y="1" text-anchor="middle" dominant-baseline="central" font-family="Georgia, 'Times New Roman', serif" font-size="22" font-weight="700" fill="#0D0D0D">A</text>
  </g>
  <line x1="380" y1="55" x2="380" y2="210" stroke="#333333" stroke-width="0.5"/>
  <text x="410" y="100" font-family="Georgia, 'Times New Roman', serif" font-size="42" font-weight="700" fill="#FFFFFF" letter-spacing="2">ART</text>
  <text x="410" y="125" font-family="Arial, Helvetica, sans-serif" font-size="11" letter-spacing="7" fill="#555555">AT THE</text>
  <text x="410" y="170" font-family="Georgia, 'Times New Roman', serif" font-size="42" font-weight="700" fill="#FFFFFF" letter-spacing="2">AFTERS</text>
  <path d="M408 182 Q450 178 500 181 Q550 184 600 179" stroke="#39FF33" stroke-width="2.5" fill="none" stroke-linecap="round" opacity="0.45"/>
  <text x="410" y="208" font-family="Arial, Helvetica, sans-serif" font-size="11" fill="#666666" font-style="italic" letter-spacing="1">by <tspan font-family="Georgia, 'Times New Roman', serif" fill="#888888" letter-spacing="2">Stevie Alger</tspan></text>
</svg>
