<svg xmlns="http://www.w3.org/2000/svg" viewBox="0 0 800 200" width="800" height="200">
  <rect width="800" height="200" fill="#FAFAFA"/>
  <g transform="translate(280, 10) scale(0.55)"><path d="M48 170 Q52 135 60 95 Q68 58 78 28 Q84 12 90 5 Q93 2 95 3" stroke="#FF3399" stroke-width="14" fill="none" stroke-linecap="round" stroke-linejoin="round" opacity="0.75"/>
    <path d="M95 3 Q97 2 100 5 Q106 12 112 28 Q122 58 130 95 Q138 135 142 170" stroke="#FF3399" stroke-width="14" fill="none" stroke-linecap="round" stroke-linejoin="round" opacity="0.75"/>
    <path d="M62 110 Q78 104 95 108 Q112 112 128 106" stroke="#39FF33" stroke-width="8" fill="none" stroke-linecap="round" opacity="0.6"/>
    <path d="M48 172 Q47 186 49 198 Q50 206 48 212" stroke="#FF3399" stroke-width="2.8" fill="none" stroke-linecap="round" opacity="0.6"/>
    <circle cx="48" cy="216" r="3.8" fill="#FF3399" opacity="0.6"/>
    <path d="M97 114 Q98 125 96 134" stroke="#39FF33" stroke-width="1.8" fill="none" stroke-linecap="round" opacity="0.45"/>
    <circle cx="96" cy="137" r="2.5" fill="#39FF33" opacity="0.45"/>
    <circle cx="95" cy="0" r="3" fill="#FF3399" opacity="0.4"/>
    <circle cx="105" cy="-1" r="1.8" fill="#FF3399" opacity="0.28"/>
    <circle cx="83" cy="0" r="1.5" fill="#FF3399" opacity="0.22"/></g>
  <text x="400" y="162" text-anchor="middle" font-family="Georgia, serif" font-size="18" font-weight="700" fill="#1A1A1A" letter-spacing="6">ART AT THE AFTERS</text>
  <path d="M260 170 Q358.0 166 400 169 Q442.0 172 540 167" stroke="#39FF33" stroke-width="2" fill="none" stroke-linecap="round" opacity="0.3"/>
  <text x="400" y="192" text-anchor="middle" font-family="Arial, Helvetica, sans-serif" font-size="10" fill="#BBBBBB" font-style="italic" letter-spacing="1">by <tspan font-family="Georgia, serif" fill="#999999" letter-spacing="2">Stevie Alger</tspan></text>
</svg>