<svg xmlns="http://www.w3.org/2000/svg" viewBox="0 0 500 120" width="500" height="120">
  <line x1="0" y1="0" x2="400" y2="0" stroke="#FF3399" stroke-width="2" opacity="0.5"/>
  <g transform="translate(8, 18) scale(0.25)"><path d="M48 170 Q52 135 60 95 Q68 58 78 28 Q84 12 90 5 Q93 2 95 3" stroke="#FF3399" stroke-width="18" fill="none" stroke-linecap="round" stroke-linejoin="round" opacity="0.85"/>
    <path d="M95 3 Q97 2 100 5 Q106 12 112 28 Q122 58 130 95 Q138 135 142 170" stroke="#FF3399" stroke-width="18" fill="none" stroke-linecap="round" stroke-linejoin="round" opacity="0.85"/>
    <path d="M62 110 Q78 104 95 108 Q112 112 128 106" stroke="#39FF33" stroke-width="10" fill="none" stroke-linecap="round" opacity="0.75"/></g>
  <text x="60" y="35" font-family="Georgia, serif" font-size="16" font-weight="700" fill="#1A1A1A" letter-spacing="1">Art at the Afters</text>
  <text x="60" y="52" font-family="Arial, Helvetica, sans-serif" font-size="9" fill="#999999" font-style="italic">by Stevie Alger</text>
  <text x="60" y="72" font-family="Arial, Helvetica, sans-serif" font-size="9" fill="#AAAAAA">artattheafters.com</text>
  <text x="60" y="86" font-family="Arial, Helvetica, sans-serif" font-size="9" fill="#AAAAAA">@artattheafters &middot; Venmo @steviealger</text>
  <text x="60" y="100" font-family="Arial, Helvetica, sans-serif" font-size="9" fill="#FF3399">One of a kind custom artwork, delivered to you.</text>
</svg>