<svg xmlns="http://www.w3.org/2000/svg" viewBox="0 0 300 120" width="300" height="120">
  <rect width="300" height="120" rx="16" fill="#1A1A1A" stroke="#2A2A2A" stroke-width="1"/>
  <g transform="translate(15, 10) scale(0.42)"><path d="M48 170 Q52 135 60 95 Q68 58 78 28 Q84 12 90 5 Q93 2 95 3" stroke="#FF3399" stroke-width="18" fill="none" stroke-linecap="round" stroke-linejoin="round" opacity="0.85"/>
    <path d="M95 3 Q97 2 100 5 Q106 12 112 28 Q122 58 130 95 Q138 135 142 170" stroke="#FF3399" stroke-width="18" fill="none" stroke-linecap="round" stroke-linejoin="round" opacity="0.85"/>
    <path d="M62 110 Q78 104 95 108 Q112 112 128 106" stroke="#39FF33" stroke-width="10" fill="none" stroke-linecap="round" opacity="0.75"/></g>
  <text x="110" y="42" font-family="Georgia, serif" font-size="16" font-weight="700" fill="#F5F5F5" letter-spacing="2">ART AT THE</text>
  <text x="110" y="65" font-family="Georgia, serif" font-size="16" font-weight="700" fill="#F5F5F5" letter-spacing="2">AFTERS</text>
  <path d="M110 73 Q140 70 170 72 Q200 74 230 71" stroke="#39FF33" stroke-width="1.5" fill="none" stroke-linecap="round" opacity="0.4"/>
  <text x="110" y="92" font-family="Arial, sans-serif" font-size="8" fill="#666666" font-style="italic">by Stevie Alger</text>
  <text x="110" y="106" font-family="Arial, sans-serif" font-size="7" fill="#444444" letter-spacing="2">@ARTATTHEAFTERS</text>
</svg>