<svg xmlns="http://www.w3.org/2000/svg" viewBox="0 0 1080 1080" width="1080" height="1080">
  <rect width="1080" height="1080" fill="#1A1A1A"/>
  <g transform="translate(395, 200) scale(2)"><path d="M48 170 Q52 135 60 95 Q68 58 78 28 Q84 12 90 5 Q93 2 95 3" stroke="#FF3399" stroke-width="14" fill="none" stroke-linecap="round" stroke-linejoin="round" opacity="0.85"/>
    <path d="M95 3 Q97 2 100 5 Q106 12 112 28 Q122 58 130 95 Q138 135 142 170" stroke="#FF3399" stroke-width="14" fill="none" stroke-linecap="round" stroke-linejoin="round" opacity="0.85"/>
    <path d="M62 110 Q78 104 95 108 Q112 112 128 106" stroke="#39FF33" stroke-width="8" fill="none" stroke-linecap="round" opacity="0.75"/>
    <path d="M48 172 Q47 186 49 198 Q50 206 48 212" stroke="#FF3399" stroke-width="2.8" fill="none" stroke-linecap="round" opacity="0.6"/>
    <circle cx="48" cy="216" r="3.8" fill="#FF3399" opacity="0.6"/>
    <path d="M97 114 Q98 125 96 134" stroke="#39FF33" stroke-width="1.8" fill="none" stroke-linecap="round" opacity="0.45"/>
    <circle cx="96" cy="137" r="2.5" fill="#39FF33" opacity="0.45"/>
    <circle cx="95" cy="0" r="3" fill="#FF3399" opacity="0.4"/>
    <circle cx="105" cy="-1" r="1.8" fill="#FF3399" opacity="0.28"/>
    <circle cx="83" cy="0" r="1.5" fill="#FF3399" opacity="0.22"/></g>
  <text x="540" y="720" text-anchor="middle" font-family="Georgia, serif" font-size="48" font-weight="700" fill="#F5F5F5" letter-spacing="10">ART AT THE AFTERS</text>
  <path d="M300 740 Q420 734 540 738 Q660 742 780 736" stroke="#39FF33" stroke-width="3" fill="none" stroke-linecap="round" opacity="0.4"/>
  <text x="540" y="790" text-anchor="middle" font-family="Arial, Helvetica, sans-serif" font-size="18" fill="#666666" font-style="italic" letter-spacing="2">by <tspan font-family="Georgia, serif" fill="#888888" letter-spacing="3">Stevie Alger</tspan></text>
  <text x="540" y="840" text-anchor="middle" font-family="Arial, Helvetica, sans-serif" font-size="14" letter-spacing="5" fill="#444444">ONE OF A KIND CUSTOM ARTWORK</text>
</svg>