<svg xmlns="http://www.w3.org/2000/svg" viewBox="0 0 1500 500" width="1500" height="500">
  <rect width="1500" height="500" fill="#1A1A1A"/>
  <circle cx="200" cy="250" r="200" fill="#FF3399" opacity="0.03"/>
  <circle cx="1300" cy="250" r="180" fill="#39FF33" opacity="0.02"/>
  <g transform="translate(470, 65) scale(1.1)"><path d="M48 170 Q52 135 60 95 Q68 58 78 28 Q84 12 90 5 Q93 2 95 3" stroke="#FF3399" stroke-width="14" fill="none" stroke-linecap="round" stroke-linejoin="round" opacity="0.85"/>
    <path d="M95 3 Q97 2 100 5 Q106 12 112 28 Q122 58 130 95 Q138 135 142 170" stroke="#FF3399" stroke-width="14" fill="none" stroke-linecap="round" stroke-linejoin="round" opacity="0.85"/>
    <path d="M62 110 Q78 104 95 108 Q112 112 128 106" stroke="#39FF33" stroke-width="8" fill="none" stroke-linecap="round" opacity="0.75"/>
    <path d="M48 172 Q47 186 49 198 Q50 206 48 212" stroke="#FF3399" stroke-width="2.8" fill="none" stroke-linecap="round" opacity="0.6"/>
    <circle cx="48" cy="216" r="3.8" fill="#FF3399" opacity="0.6"/>
    <path d="M97 114 Q98 125 96 134" stroke="#39FF33" stroke-width="1.8" fill="none" stroke-linecap="round" opacity="0.45"/>
    <circle cx="96" cy="137" r="2.5" fill="#39FF33" opacity="0.45"/>
    <circle cx="95" cy="0" r="3" fill="#FF3399" opacity="0.4"/>
    <circle cx="105" cy="-1" r="1.8" fill="#FF3399" opacity="0.28"/>
    <circle cx="83" cy="0" r="1.5" fill="#FF3399" opacity="0.22"/></g>
  <line x1="680" y1="80" x2="680" y2="420" stroke="#333333" stroke-width="0.5"/>
  <text x="720" y="160" font-family="Georgia, serif" font-size="50" font-weight="700" fill="#F5F5F5" letter-spacing="2">ART</text>
    <text x="720" y="191.0" font-family="Arial, Helvetica, sans-serif" font-size="12" letter-spacing="8" fill="#555555">AT THE</text>
    <text x="720" y="250.0" font-family="Georgia, serif" font-size="50" font-weight="700" fill="#F5F5F5" letter-spacing="2">AFTERS</text>
  <path d="M718 350 Q802.0 346 838 349 Q874.0 352 958 347" stroke="#39FF33" stroke-width="2" fill="none" stroke-linecap="round" opacity="0.45"/>
  <text x="720" y="385" text-anchor="start" font-family="Arial, Helvetica, sans-serif" font-size="11" fill="#666666" font-style="italic" letter-spacing="1">by <tspan font-family="Georgia, serif" fill="#888888" letter-spacing="2">Stevie Alger</tspan></text>
</svg>