<svg xmlns="http://www.w3.org/2000/svg" viewBox="0 0 400 400" width="400" height="400">
  <defs><clipPath id="c"><circle cx="200" cy="200" r="200"/></clipPath></defs>
  <g clip-path="url(#c)">
    <rect width="400" height="400" fill="#1A1A1A"/>
    <g transform="translate(80, 20) scale(1.1)"><path d="M48 170 Q52 135 60 95 Q68 58 78 28 Q84 12 90 5 Q93 2 95 3" stroke="#FF3399" stroke-width="14" fill="none" stroke-linecap="round" stroke-linejoin="round" opacity="0.85"/>
    <path d="M95 3 Q97 2 100 5 Q106 12 112 28 Q122 58 130 95 Q138 135 142 170" stroke="#FF3399" stroke-width="14" fill="none" stroke-linecap="round" stroke-linejoin="round" opacity="0.85"/>
    <path d="M62 110 Q78 104 95 108 Q112 112 128 106" stroke="#39FF33" stroke-width="8" fill="none" stroke-linecap="round" opacity="0.75"/>
    <circle cx="95" cy="0" r="3" fill="#FF3399" opacity="0.4"/>
    <circle cx="105" cy="-1" r="1.8" fill="#FF3399" opacity="0.28"/>
    <circle cx="83" cy="0" r="1.5" fill="#FF3399" opacity="0.22"/></g>
    <text x="200" y="310" text-anchor="middle" font-family="Georgia, serif" font-size="20" font-weight="700" fill="#F5F5F5" letter-spacing="3">AFTERS</text>
    <path d="M145 320 Q183.5 316 200 319 Q216.5 322 255 317" stroke="#39FF33" stroke-width="2" fill="none" stroke-linecap="round" opacity="0.4"/>
  </g>
</svg>